<?xml version="1.0" encoding="UTF-8" standalone="no"?>
<svg
   xmlns:dc="http://purl.org/dc/elements/1.1/"
   xmlns:cc="http://creativecommons.org/ns#"
   xmlns:rdf="http://www.w3.org/1999/02/22-rdf-syntax-ns#"
   xmlns:svg="http://www.w3.org/2000/svg"
   xmlns="http://www.w3.org/2000/svg"
   viewBox="0 0 1903.6473 578.50458"
   height="578.50458"
   width="1903.6473"
   xml:space="preserve"
   id="svg2"
   version="1.1"><metadata
     id="metadata8"><rdf:RDF><cc:Work
         rdf:about=""><dc:format>image/svg+xml</dc:format><dc:type
           rdf:resource="http://purl.org/dc/dcmitype/StillImage" /></cc:Work></rdf:RDF></metadata><defs
     id="defs6" /><g
     transform="matrix(1.3333333,0,0,1.3333333,0,1.7129282e-5)"
     id="g10"><g
       id="g12"><path
         id="path14"
         style="fill:#ffffff;fill-opacity:1;fill-rule:nonzero;stroke:none"
         d="M 0,0 H 1427.734 V 433.879 H 0 Z" /><g
         id="g16"><path
           id="path18"
           style="fill:none;stroke:#1e1e1e;stroke-width:1.5;stroke-linecap:round;stroke-linejoin:miter;stroke-miterlimit:4;stroke-dasharray:none;stroke-opacity:0.2"
           d="m 31.5,7.5 c 477.188,0 954.383,0 1364.738,0 M 31.5,7.5 c 335.055,0 670.102,0 1364.738,0 m 0,0 c 15.996,0 24,8.004 24,24 m -24,-24 c 15.996,0 24,8.004 24,24 m 0,0 c 0,140.004 0,280.004 0,370.875 m 0,-370.875 c 0,131.199 0,262.402 0,370.875 m 0,0 c 0,16.004 -8.004,24 -24,24 m 24,-24 c 0,16.004 -8.004,24 -24,24 m 0,0 c -355.402,0 -710.797,0 -1364.738,0 m 1364.738,0 c -344.941,0 -689.875,0 -1364.738,0 m 0,0 c -15.996,0 -24,-7.996 -24,-24 m 24,24 c -15.996,0 -24,-7.996 -24,-24 m 0,0 c 0,-75.676 0,-151.352 0,-370.875 m 0,370.875 C 7.5,283.41 7.5,164.438 7.5,31.5 m 0,0 c 0,-15.996 8.004,-24 24,-24 m -24,24 c 0,-15.996 8.004,-24 24,-24" /></g><text
         id="text22"
         style="font-variant:normal;font-weight:normal;font-size:23.19169807px;font-family:'DejaVu Sans';-inkscape-font-specification:DejaVuSans;writing-mode:lr-tb;fill:#1e1e1e;fill-opacity:1;fill-rule:nonzero;stroke:none"
         transform="translate(643.89041,40.306691)"><tspan
           id="tspan20"
           y="0"
           x="0 14.146935 31.563902 46.267437 59.973732 74.167053 80.591148 87.942917 99.631538 109.16332 123.35664 145.94536 160.20825 179.22545 193.39557 202.92735">THEval Framework</tspan></text>
<g
         id="g24"><path
           id="path26"
           style="fill:none;stroke:#1e1e1e;stroke-width:1.5;stroke-linecap:round;stroke-linejoin:miter;stroke-miterlimit:4;stroke-dasharray:none;stroke-opacity:1"
           d="M 735.402,53.57 C 663.395,65.699 375.367,114.223 303.359,126.359 M 735.402,53.57 c -72.007,12.129 -360.035,60.653 -432.043,72.789" /></g><g
         id="g28"><path
           id="path30"
           style="fill:none;stroke:#1e1e1e;stroke-width:1.5;stroke-linecap:round;stroke-linejoin:miter;stroke-miterlimit:4;stroke-dasharray:none;stroke-opacity:1"
           d="m 319.672,117.105 c -5.469,3.106 -10.938,6.204 -16.313,9.254 m 16.313,-9.254 c -5.52,3.133 -11.039,6.262 -16.313,9.254" /></g><g
         id="g32"><path
           id="path34"
           style="fill:none;stroke:#1e1e1e;stroke-width:1.5;stroke-linecap:round;stroke-linejoin:miter;stroke-miterlimit:4;stroke-dasharray:none;stroke-opacity:1"
           d="m 321.801,129.758 c -6.18,-1.141 -12.36,-2.281 -18.442,-3.399 m 18.442,3.399 c -6.239,-1.156 -12.481,-2.305 -18.442,-3.399" /></g><g
         id="g36"><path
           id="path38"
           style="fill:none;stroke:#1e1e1e;stroke-width:1.5;stroke-linecap:round;stroke-linejoin:miter;stroke-miterlimit:4;stroke-dasharray:none;stroke-opacity:1"
           d="m 735.523,53.578 c 70.297,11.676 351.489,58.387 421.786,70.067 M 735.523,53.578 c 70.297,11.676 351.489,58.387 421.786,70.067" /></g><g
         id="g40"><path
           id="path42"
           style="fill:none;stroke:#1e1e1e;stroke-width:1.5;stroke-linecap:round;stroke-linejoin:miter;stroke-miterlimit:4;stroke-dasharray:none;stroke-opacity:1"
           d="m 1138.875,127.086 c 5.488,-1.027 10.98,-2.047 18.434,-3.441 m -18.434,3.441 c 4.266,-0.797 8.527,-1.59 18.434,-3.441" /></g><g
         id="g44"><path
           id="path46"
           style="fill:none;stroke:#1e1e1e;stroke-width:1.5;stroke-linecap:round;stroke-linejoin:miter;stroke-miterlimit:4;stroke-dasharray:none;stroke-opacity:1"
           d="m 1140.98,114.434 c 4.864,2.742 9.731,5.488 16.329,9.211 m -16.329,-9.211 c 3.774,2.128 7.555,4.257 16.329,9.211" /></g><path
         id="path48"
         style="fill:#ffd6e0;fill-opacity:1;fill-rule:nonzero;stroke:none"
         d="m 233.02,130.895 c 41.277,-1.485 80.585,-2.102 128.855,0 2.82,-1.645 7.539,2.375 5.813,5.812 -1.297,4.988 1.082,9.906 0,11.625 2.574,2.578 0.57,3.555 -5.813,5.813 -51.27,-0.938 -98.797,1.41 -128.855,0 -6.536,1.332 -7.493,-4.098 -5.813,-5.813 -1.516,-4.098 -1.066,-6.863 0,-11.625 1.527,-3.527 0.465,-5.68 5.813,-5.812" /><g
         id="g50"><path
           id="path52"
           style="fill:none;stroke:#1e1e1e;stroke-width:1.5;stroke-linecap:round;stroke-linejoin:miter;stroke-miterlimit:4;stroke-dasharray:none;stroke-opacity:1"
           d="m 233.02,130.895 c 28.589,-1.098 58.476,-1.411 128.855,0 m -128.855,0 c 30.832,0.562 62,-0.368 128.855,0 m 0,0 c 4.57,-0.758 4.563,3.382 5.813,5.812 m -5.813,-5.812 c 5.23,0.98 6.512,0.375 5.813,5.812 m 0,0 c -0.204,3.652 -0.083,7.02 0,11.625 m 0,-11.625 c 0.242,3.481 0.308,6.391 0,11.625 m 0,0 c 0.488,3.27 -1.266,4.527 -5.813,5.813 m 5.813,-5.813 c -0.508,2.617 -1.836,7.055 -5.813,5.813 m 0,0 c -40.777,2.062 -82.035,2.187 -128.855,0 m 128.855,0 c -41.242,0.589 -80.918,1.769 -128.855,0 m 0,0 c -4.95,0.98 -4.704,-3.375 -5.813,-5.813 m 5.813,5.813 c -2.282,-1.106 -4.735,-3.024 -5.813,-5.813 m 0,0 c -1.098,-3.602 0.773,-4.328 0,-11.625 m 0,11.625 c 0.516,-4.359 -0.137,-9.309 0,-11.625 m 0,0 c -0.277,-3.699 2.277,-5.07 5.813,-5.812 m -5.813,5.812 c -0.602,-2.59 1.305,-4.582 5.813,-5.812" /></g><text
         id="text56"
         style="font-variant:normal;font-weight:normal;font-size:11.64273643px;font-family:'DejaVu Sans';-inkscape-font-specification:DejaVuSans;writing-mode:lr-tb;fill:#1e1e1e;fill-opacity:1;fill-rule:nonzero;stroke:none"
         transform="translate(258.48172,146.34896)"><tspan
           id="tspan54"
           y="0"
           x="0 7.7074914 10.932529 18.314024 25.474306 32.588017 36.278767 45.441597 52.811451 59.936806 63.161842 66.386879 70.950836">Video Quality</tspan></text>
<g
         id="g58"><path
           id="path60"
           style="fill:none;stroke:#1e1e1e;stroke-width:1.5;stroke-linecap:round;stroke-linejoin:miter;stroke-miterlimit:4;stroke-dasharray:none;stroke-opacity:1"
           d="m 295.34,159.133 c -55.711,20.16 -111.27,40.222 -179.039,63.195 M 295.34,159.133 c -62.52,21.515 -125.235,43.551 -179.039,63.195" /></g><g
         id="g62"><path
           id="path64"
           style="fill:none;stroke:#1e1e1e;stroke-width:1.5;stroke-linecap:round;stroke-linejoin:miter;stroke-miterlimit:4;stroke-dasharray:none;stroke-opacity:1"
           d="m 130.699,210.312 c -5.07,3.614 -9.929,8.024 -14.398,12.016 m 14.398,-12.016 c -4.719,4.551 -10.035,8.723 -14.398,12.016" /></g><g
         id="g66"><path
           id="path68"
           style="fill:none;stroke:#1e1e1e;stroke-width:1.5;stroke-linecap:round;stroke-linejoin:miter;stroke-miterlimit:4;stroke-dasharray:none;stroke-opacity:1"
           d="m 135.051,222.379 c -6.422,-0.09 -12.625,0.601 -18.75,-0.051 m 18.75,0.051 c -6.145,0.309 -12.985,0.277 -18.75,-0.051" /></g><g
         id="g70"><path
           id="path72"
           style="fill:none;stroke:#1e1e1e;stroke-width:1.5;stroke-linecap:round;stroke-linejoin:miter;stroke-miterlimit:4;stroke-dasharray:none;stroke-opacity:1"
           d="M 296.926,159.145 C 368.664,182.453 440.41,205.766 487,220.898 M 296.926,159.145 c 48.984,15.914 97.965,31.828 190.074,61.753" /></g><g
         id="g74"><path
           id="path76"
           style="fill:none;stroke:#1e1e1e;stroke-width:1.5;stroke-linecap:round;stroke-linejoin:miter;stroke-miterlimit:4;stroke-dasharray:none;stroke-opacity:1"
           d="m 468.262,221.551 c 7.074,-0.246 14.148,-0.492 18.738,-0.653 m -18.738,0.653 c 4.832,-0.164 9.66,-0.336 18.738,-0.653" /></g><g
         id="g78"><path
           id="path80"
           style="fill:none;stroke:#1e1e1e;stroke-width:1.5;stroke-linecap:round;stroke-linejoin:miter;stroke-miterlimit:4;stroke-dasharray:none;stroke-opacity:1"
           d="m 472.223,209.355 c 5.582,4.36 11.152,8.715 14.777,11.543 m -14.777,-11.543 c 3.812,2.981 7.621,5.95 14.777,11.543" /></g><path
         id="path82"
         style="fill:#a9def9;fill-opacity:1;fill-rule:nonzero;stroke:none"
         d="m 293.867,369.184 c 28.321,0.847 60.278,-1.125 146.078,0 5.301,-2.317 10.215,3.113 10.125,10.125 1.453,4.238 1.371,15.324 0,20.25 -1.851,8.527 -1.172,9.382 -10.125,10.125 -55.5,-0.262 -113.812,4.285 -146.078,0 -4.687,-2.317 -8.707,-5.551 -10.125,-10.125 2.227,-4.141 -2.015,-12.18 0,-20.25 0.824,-5.227 1.922,-10.606 10.125,-10.125" /><g
         id="g84"><path
           id="path86"
           style="fill:none;stroke:#1e1e1e;stroke-width:1.5;stroke-linecap:round;stroke-linejoin:miter;stroke-miterlimit:4;stroke-dasharray:none;stroke-opacity:1"
           d="m 293.867,369.184 c 35.391,0.824 69.082,0.046 146.078,0 m -146.078,0 c 51.278,0.886 100.539,1.839 146.078,0 m 0,0 c 5.758,0.254 8.7,3.195 10.125,10.125 m -10.125,-10.125 c 5.731,-0.704 8.969,1.824 10.125,10.125 m 0,0 c -1.449,9.382 -0.504,15.437 0,20.25 m 0,-20.25 c 0.637,4.156 -0.75,9.25 0,20.25 m 0,0 c 0.801,7.457 -4.359,9.519 -10.125,10.125 m 10.125,-10.125 c 1.223,5.035 -2.191,8.421 -10.125,10.125 m 0,0 c -40.785,0.593 -79.695,1.004 -146.078,0 m 146.078,0 c -55.468,-0.114 -111.894,0.539 -146.078,0 m 0,0 c -6.293,-0.043 -9.555,-2.465 -10.125,-10.125 m 10.125,10.125 c -5.226,-1.598 -9.976,-3.149 -10.125,-10.125 m 0,0 c -0.816,-6.239 -0.09,-12.426 0,-20.25 m 0,20.25 c 0.676,-6.856 -0.015,-13.239 0,-20.25 m 0,0 c -0.015,-6.204 2.738,-8.692 10.125,-10.125 m -10.125,10.125 c -1.523,-7.633 3.645,-11.684 10.125,-10.125" /></g><text
         id="text90"
         style="font-variant:normal;font-weight:normal;font-size:12px;font-family:'DejaVu Sans';-inkscape-font-specification:DejaVuSans;writing-mode:lr-tb;fill:#1e1e1e;fill-opacity:1;fill-rule:nonzero;stroke:none"
         transform="translate(316.16367,393.38234)"><tspan
           id="tspan88"
           y="0"
           x="0 4.6799998 12.312 16.992001 20.796 27.48 30.804001 38.411999 42.216 51.456001 58.548 66.143997 73.487999 85.211998 88.536003 95.124001">(4) Lip Dynamics</tspan></text>
<path
         id="path92"
         style="fill:#ffd6e0;fill-opacity:1;fill-rule:nonzero;stroke:none"
         d="m 221.023,228.758 c 38.446,-2.094 74.739,-2.844 146.079,0 4.152,-2.113 10.671,3.398 10.125,10.125 0.859,6.699 1.332,11.82 0,20.25 -0.063,9.285 -2.739,7.648 -10.125,10.125 -44.516,-1.926 -85.653,-2.16 -146.079,0 -8.582,-2.024 -10.187,-1.988 -10.125,-10.125 -0.718,-3.906 0.684,-10.004 0,-20.25 0.848,-5.746 5.934,-12.188 10.125,-10.125" /><g
         id="g94"><path
           id="path96"
           style="fill:none;stroke:#1e1e1e;stroke-width:1.5;stroke-linecap:round;stroke-linejoin:miter;stroke-miterlimit:4;stroke-dasharray:none;stroke-opacity:1"
           d="m 221.023,228.758 c 50.055,-1.313 97.356,-0.578 146.079,0 m -146.079,0 c 44.415,-0.047 87.008,0.734 146.079,0 m 0,0 c 5.39,-1.469 10.32,3.879 10.125,10.125 m -10.125,-10.125 c 6.015,1.101 10.964,3.219 10.125,10.125 m 0,0 c -0.325,5.183 -0.325,9.254 0,20.25 m 0,-20.25 c 0.578,6.676 0.335,14.992 0,20.25 m 0,0 c -0.415,8.047 -2.403,11.355 -10.125,10.125 m 10.125,-10.125 c 0.621,5.203 -3.922,11.484 -10.125,10.125 m 0,0 c -56.176,0.898 -110.973,1.109 -146.079,0 m 146.079,0 c -54.407,-0.996 -108.563,-1.637 -146.079,0 m 0,0 c -7.011,-1.418 -9.464,-3.067 -10.125,-10.125 m 10.125,10.125 c -8.093,0.547 -8.941,-2.34 -10.125,-10.125 m 0,0 c -1.328,-6.93 1.395,-14.363 0,-20.25 m 0,20.25 c -0.339,-4.551 -0.503,-9.774 0,-20.25 m 0,0 c -0.015,-7.547 2.903,-8.766 10.125,-10.125 m -10.125,10.125 c -1.312,-5.235 4.754,-10.41 10.125,-10.125" /></g><text
         id="text100"
         style="font-variant:normal;font-weight:normal;font-size:12px;font-family:'DejaVu Sans';-inkscape-font-specification:DejaVuSans;writing-mode:lr-tb;fill:#1e1e1e;fill-opacity:1;fill-rule:nonzero;stroke:none"
         transform="translate(226.29201,252.95579)"><tspan
           id="tspan98"
           y="0"
           x="0 4.6799998 12.312 16.992001 20.796 28.403999 35.495998 42.875999 49.116001 52.919998 60.875999 64.199997 70.440002 78.036003 85.379997 88.704002 92.508003 101.952 109.548 116.928 120.252 123.576 128.28">(2) Eyes Visual Quality</tspan></text>
<path
         id="path102"
         style="fill:#ffd6e0;fill-opacity:1;fill-rule:nonzero;stroke:none"
         d="m 411.68,228.207 c 34.988,-1.441 65.933,2.023 146.078,0 8.871,1.047 9.14,2.488 10.125,10.125 1.125,6.922 -1,11.074 0,20.25 2.09,5.211 -2.223,9.66 -10.125,10.125 -49.082,-1.23 -91.492,-1.285 -146.078,0 -8.805,-0.57 -11.219,-5.062 -10.125,-10.125 -2.567,-6.055 1.703,-10.398 0,-20.25 -2.078,-8.672 5.871,-12.461 10.125,-10.125" /><g
         id="g104"><path
           id="path106"
           style="fill:none;stroke:#1e1e1e;stroke-width:1.5;stroke-linecap:round;stroke-linejoin:miter;stroke-miterlimit:4;stroke-dasharray:none;stroke-opacity:1"
           d="m 411.68,228.207 c 47.308,-2.004 93.418,-1.344 146.078,0 m -146.078,0 c 43.769,-0.559 86.121,-0.84 146.078,0 m 0,0 c 5.836,1.438 8.66,3.297 10.125,10.125 m -10.125,-10.125 c 5.863,1.422 11.57,3.68 10.125,10.125 m 0,0 c -1.141,3.672 -1.207,10.918 0,20.25 m 0,-20.25 c -0.75,7.625 0.472,15.84 0,20.25 m 0,0 c 1.191,6.066 -2.688,10.551 -10.125,10.125 m 10.125,-10.125 c -1.028,6.695 -4.727,8.938 -10.125,10.125 m 0,0 c -29.867,1.152 -58.508,2.496 -146.078,0 m 146.078,0 c -41.86,0.465 -85.621,0.922 -146.078,0 m 0,0 c -8.024,-1.328 -10.59,-4.172 -10.125,-10.125 m 10.125,10.125 c -6.637,1.625 -9.36,-2.801 -10.125,-10.125 m 0,0 c 1.043,-6.562 0.66,-9.594 0,-20.25 m 0,20.25 c 0.14,-6.879 -0.496,-13.359 0,-20.25 m 0,0 c 0.293,-7.051 3.246,-9.25 10.125,-10.125 m -10.125,10.125 c -0.352,-8.281 2.781,-9.828 10.125,-10.125" /></g><text
         id="text110"
         style="font-variant:normal;font-weight:normal;font-size:12px;font-family:'DejaVu Sans';-inkscape-font-specification:DejaVuSans;writing-mode:lr-tb;fill:#1e1e1e;fill-opacity:1;fill-rule:nonzero;stroke:none"
         transform="translate(412.29624,252.40338)"><tspan
           id="tspan108"
           y="0"
           x="0 4.6799998 12.312 16.992001 20.796 31.139999 38.472 46.104 50.807999 58.403999 62.208 70.176003 73.5 79.739998 87.335999 94.68 98.003998 101.808 111.252 118.848 126.228 129.552 132.87601 137.58">(3) Mouth Visual Quality</tspan></text>
<path
         id="path112"
         style="fill:#ffd6e0;fill-opacity:1;fill-rule:nonzero;stroke:none"
         d="m 27.793,229.262 c 37.141,-2.832 75.504,-0.098 146.078,0 7.953,-1.762 7.914,1.254 10.125,10.125 0.266,5.297 1.547,9.152 0,20.25 -0.937,9.301 -4.117,10.465 -10.125,10.125 -57.465,2.117 -108.402,-1.813 -146.078,0 -7.852,-2.063 -11.277,-5.055 -10.125,-10.125 1.398,-3.965 0.371,-11.055 0,-20.25 1.211,-8.813 4.98,-8.407 10.125,-10.125" /><g
         id="g114"><path
           id="path116"
           style="fill:none;stroke:#1e1e1e;stroke-width:1.5;stroke-linecap:round;stroke-linejoin:miter;stroke-miterlimit:4;stroke-dasharray:none;stroke-opacity:1"
           d="m 27.793,229.262 c 45.266,-1.086 90.562,0.84 146.078,0 m -146.078,0 c 56.051,-0.473 110.148,-0.09 146.078,0 m 0,0 c 6.707,0.054 8.813,4.277 10.125,10.125 m -10.125,-10.125 c 7.09,-0.344 9.984,4.39 10.125,10.125 m 0,0 c 0.082,4.492 0.813,10.793 0,20.25 m 0,-20.25 c 0.129,8.597 0.113,15.742 0,20.25 m 0,0 c -0.492,6.465 -3.203,11.41 -10.125,10.125 m 10.125,-10.125 c 0.699,7.539 -4.043,9.929 -10.125,10.125 m 0,0 c -55.418,0.902 -110.734,1.09 -146.078,0 m 146.078,0 c -30.668,0.285 -60.32,0.554 -146.078,0 m 0,0 c -7.688,-1.035 -8.824,-2.528 -10.125,-10.125 m 10.125,10.125 c -8.188,-0.875 -8.832,-4.039 -10.125,-10.125 m 0,0 c -1.152,-3.899 -0.629,-8.879 0,-20.25 m 0,20.25 c 0.195,-5.25 0.512,-10.895 0,-20.25 m 0,0 c 0.562,-5.707 4.035,-10.813 10.125,-10.125 m -10.125,10.125 c 1.703,-7.313 5.027,-8.727 10.125,-10.125" /></g><text
         id="text120"
         style="font-variant:normal;font-weight:normal;font-size:12px;font-family:'DejaVu Sans';-inkscape-font-specification:DejaVuSans;writing-mode:lr-tb;fill:#1e1e1e;fill-opacity:1;fill-rule:nonzero;stroke:none"
         transform="translate(41.37271,253.46135)"><tspan
           id="tspan118"
           y="0"
           x="0 4.6799998 12.312 16.992001 20.796 30.084 33.408001 40.740002 48.348 55.692001 59.015999 62.82 70.835999 78.216003 84.456001 89.160004 96.755997 104.136 108.84 112.164">(1) Global Aesthetic</tspan></text>
<g
         id="g122"><path
           id="path124"
           style="fill:none;stroke:#1e1e1e;stroke-width:1.5;stroke-linecap:round;stroke-linejoin:miter;stroke-miterlimit:4;stroke-dasharray:none;stroke-opacity:1"
           d="m 296.285,158.426 c 0.035,17.34 0.082,34.687 0.141,62.367 m -0.141,-62.367 c 0.043,20.265 0.09,40.527 0.141,62.367" /></g><g
         id="g126"><path
           id="path128"
           style="fill:none;stroke:#1e1e1e;stroke-width:1.5;stroke-linecap:round;stroke-linejoin:miter;stroke-miterlimit:4;stroke-dasharray:none;stroke-opacity:1"
           d="m 289.977,203.191 c 1.793,4.899 3.585,9.797 6.449,17.602 m -6.449,-17.602 c 2.093,5.723 4.191,11.446 6.449,17.602" /></g><g
         id="g130"><path
           id="path132"
           style="fill:none;stroke:#1e1e1e;stroke-width:1.5;stroke-linecap:round;stroke-linejoin:miter;stroke-miterlimit:4;stroke-dasharray:none;stroke-opacity:1"
           d="m 302.801,203.164 c -1.77,4.902 -3.547,9.809 -6.375,17.629 m 6.375,-17.629 c -2.071,5.727 -4.141,11.457 -6.375,17.629" /></g><path
         id="path134"
         style="fill:#a9def9;fill-opacity:1;fill-rule:nonzero;stroke:none"
         d="m 477.934,367.727 c 57.773,-1.004 109.98,-0.879 146.078,0 4.8,2.113 11.886,5.316 10.125,10.125 -2.078,5.086 -0.067,13.949 0,20.25 1.761,5.121 -0.848,8.953 -10.125,10.125 -35.715,-2.227 -71.723,-2.348 -146.078,0 -5.856,2.062 -12.239,-1.665 -10.125,-10.125 -1.973,-8.567 1.007,-14.227 0,-20.25 0.175,-4.598 2.64,-7.817 10.125,-10.125" /><g
         id="g136"><path
           id="path138"
           style="fill:none;stroke:#1e1e1e;stroke-width:1.5;stroke-linecap:round;stroke-linejoin:miter;stroke-miterlimit:4;stroke-dasharray:none;stroke-opacity:1"
           d="m 477.934,367.727 c 57.277,-1.696 114.07,0.015 146.078,0 m -146.078,0 c 29.91,-0.629 59.582,-0.352 146.078,0 m 0,0 c 6.66,0.711 9.3,2.91 10.125,10.125 m -10.125,-10.125 c 7.117,-0.09 11.144,2.054 10.125,10.125 m 0,0 c -0.516,7.957 0.285,15.636 0,20.25 m 0,-20.25 c 0.824,5.144 -0.621,11.25 0,20.25 m 0,0 c 0.773,7.289 -2.473,9.496 -10.125,10.125 m 10.125,-10.125 c -1.297,7.933 -2.16,11.226 -10.125,10.125 m 0,0 c -57.922,-0.539 -114.793,-2.289 -146.078,0 m 146.078,0 c -53.946,0.097 -107.805,-0.758 -146.078,0 m 0,0 c -6.696,-0.426 -10.672,-4.622 -10.125,-10.125 m 10.125,10.125 c -7.633,-1.266 -10.707,-1.68 -10.125,-10.125 m 0,0 c -0.297,-5.34 0.324,-10.844 0,-20.25 m 0,20.25 c -0.516,-5.391 0.113,-12.516 0,-20.25 m 0,0 c -1.036,-8.024 3.503,-9.434 10.125,-10.125 m -10.125,10.125 c 0.839,-5.454 3.968,-9.946 10.125,-10.125" /></g><text
         id="text142"
         style="font-variant:normal;font-weight:normal;font-size:12px;font-family:'DejaVu Sans';-inkscape-font-specification:DejaVuSans;writing-mode:lr-tb;fill:#1e1e1e;fill-opacity:1;fill-rule:nonzero;stroke:none"
         transform="translate(471.09899,391.9245)"><tspan
           id="tspan140"
           y="0"
           x="0 4.6799998 12.312 16.992001 20.796 29.808001 37.188 44.532001 52.139999 55.98 66.323997 73.655998 78.360001 81.683998 89.015999 96.612 100.416 109.656 116.748 124.344 131.688 143.37601 146.7 153.32401">(5) Head Motion Dynamics</tspan></text>
<path
         id="path144"
         style="fill:#a9def9;fill-opacity:1;fill-rule:nonzero;stroke:none"
         d="m 662.238,367.723 c 33.891,0.203 66.961,0.804 146.078,0 6.532,1.089 12.246,1.48 10.125,10.125 -0.57,8.062 1.52,13.027 0,20.25 -1.105,6.203 -5.379,9.211 -10.125,10.125 -50.394,2.32 -103.312,3.086 -146.078,0 -7.922,1.164 -10.508,-2.789 -10.125,-10.125 0.133,-6.262 -0.586,-12.524 0,-20.25 -0.023,-5.75 2.551,-12.825 10.125,-10.125" /><g
         id="g146"><path
           id="path148"
           style="fill:none;stroke:#1e1e1e;stroke-width:1.5;stroke-linecap:round;stroke-linejoin:miter;stroke-miterlimit:4;stroke-dasharray:none;stroke-opacity:1"
           d="m 662.238,367.723 c 54.254,0.632 106.035,-0.368 146.078,0 m -146.078,0 c 39.27,0.66 79.055,1.953 146.078,0 m 0,0 c 6.352,0.48 10.493,3.136 10.125,10.125 m -10.125,-10.125 c 6.973,0.445 10.379,3.339 10.125,10.125 m 0,0 c 1.422,7.09 -0.757,12.429 0,20.25 m 0,-20.25 c 0.383,4.922 0.278,8.785 0,20.25 m 0,0 c 1.207,7.922 -3.691,11.347 -10.125,10.125 m 10.125,-10.125 c -1,5.996 -4.293,8.882 -10.125,10.125 m 0,0 c -54.64,1.961 -109.261,-0.223 -146.078,0 m 146.078,0 c -33.55,-0.368 -67.375,-0.239 -146.078,0 m 0,0 c -7.644,0.265 -11.183,-3.711 -10.125,-10.125 m 10.125,10.125 c -6.992,-0.957 -10.441,-2.805 -10.125,-10.125 m 0,0 c 0.301,-8.93 -0.277,-16.512 0,-20.25 m 0,20.25 c 0,-3.754 -0.258,-8.063 0,-20.25 m 0,0 c -0.984,-7.41 2.481,-11.555 10.125,-10.125 m -10.125,10.125 c 0.41,-8.18 2.407,-11.782 10.125,-10.125" /></g><text
         id="text152"
         style="font-variant:normal;font-weight:normal;font-size:12px;font-family:'DejaVu Sans';-inkscape-font-specification:DejaVuSans;writing-mode:lr-tb;fill:#1e1e1e;fill-opacity:1;fill-rule:nonzero;stroke:none"
         transform="translate(663.63944,391.92231)"><tspan
           id="tspan150"
           y="0"
           x="0 4.6799998 12.312 16.992001 20.796 24.323999 31.931999 39.312 46.944 51.647999 54.972 59.675999 66.767998 70.571999 78.947998 86.279999 93.875999 100.152 103.476 109.716 114.42 121.8 129.396 135.98399">(6) Identity Consistency</tspan></text>
<path
         id="path154"
         style="fill:#a9def9;fill-opacity:1;fill-rule:nonzero;stroke:none"
         d="m 847.941,367.73 c 45.399,0.661 96.825,-1.761 146.079,0 8.562,0.7 9.5,2.223 10.125,10.125 1.917,8.028 1.417,10.508 0,20.25 -1.043,6.129 -4.426,8.43 -10.125,10.125 -55.719,-1.453 -114.504,-2.292 -146.079,0 -7.996,-1.25 -9.195,-1.98 -10.125,-10.125 0.172,-6.953 2.676,-15.882 0,-20.25 1.079,-5.683 5.625,-9.312 10.125,-10.125" /><g
         id="g156"><path
           id="path158"
           style="fill:none;stroke:#1e1e1e;stroke-width:1.5;stroke-linecap:round;stroke-linejoin:miter;stroke-miterlimit:4;stroke-dasharray:none;stroke-opacity:1"
           d="m 847.941,367.73 c 57.711,1.09 111.645,0.872 146.079,0 m -146.079,0 c 53.633,0.571 109.059,0.114 146.079,0 m 0,0 c 6.597,0.473 11.015,3.895 10.125,10.125 M 994.02,367.73 c 5.226,1.09 9.441,3.723 10.125,10.125 m 0,0 c -1.305,4.75 -1.18,10.661 0,20.25 m 0,-20.25 c 0.074,4.68 -0.188,7.801 0,20.25 m 0,0 c 1.46,6.879 -2.184,10 -10.125,10.125 m 10.125,-10.125 c 1.453,7.95 -2.918,8.903 -10.125,10.125 m 0,0 c -34.403,-0.57 -65.266,1.672 -146.079,0 m 146.079,0 c -42.258,-1.418 -85.958,-1.011 -146.079,0 m 0,0 c -5.804,-1.425 -9.554,-4.332 -10.125,-10.125 m 10.125,10.125 c -7.589,1.458 -9.914,-4.625 -10.125,-10.125 m 0,0 c -0.293,-4.964 -0.136,-8.242 0,-20.25 m 0,20.25 c 0.914,-5.96 0.45,-12.765 0,-20.25 m 0,0 c 1.2,-6.531 3.563,-8.804 10.125,-10.125 m -10.125,10.125 c 0.09,-6.359 2.602,-10.257 10.125,-10.125" /></g><text
         id="text162"
         style="font-variant:normal;font-weight:normal;font-size:12px;font-family:'DejaVu Sans';-inkscape-font-specification:DejaVuSans;writing-mode:lr-tb;fill:#1e1e1e;fill-opacity:1;fill-rule:nonzero;stroke:none"
         transform="translate(869.59279,391.92959)"><tspan
           id="tspan160"
           y="0"
           x="0 4.6799998 12.312 16.992001 20.796 26.868 31.799999 39.144001 50.832001 58.212002 62.015999 72.396004 79.727997 84.431999 87.755997 95.087997">(7) Frame Motion</tspan></text>
<path
         id="path164"
         style="fill:#a9def9;fill-opacity:1;fill-rule:nonzero;stroke:none"
         d="m 1031.758,367.957 c 54.601,-0.719 110.324,-3.609 146.078,0 5.355,0.742 11.187,5.348 10.125,10.125 2.586,2.469 1.418,8.738 0,20.25 0.457,9.023 -0.789,7.898 -10.125,10.125 -33.348,2.063 -61.93,2.031 -146.078,0 -5.153,0.578 -11.488,-3.496 -10.125,-10.125 -2.102,-4.191 1.156,-14.34 0,-20.25 0.179,-5.664 1.265,-8.109 10.125,-10.125" /><g
         id="g166"><path
           id="path168"
           style="fill:none;stroke:#1e1e1e;stroke-width:1.5;stroke-linecap:round;stroke-linejoin:miter;stroke-miterlimit:4;stroke-dasharray:none;stroke-opacity:1"
           d="m 1031.758,367.957 c 48.703,1.731 95.363,0.008 146.078,0 m -146.078,0 c 43.824,0.578 87.367,0.863 146.078,0 m 0,0 c 6.758,0.141 8.82,2.902 10.125,10.125 m -10.125,-10.125 c 7.148,-1.449 10.297,3.301 10.125,10.125 m 0,0 c 1.148,3.961 -0.219,11.348 0,20.25 m 0,-20.25 c -0.813,5.789 -0.332,10.801 0,20.25 m 0,0 c -0.879,7.606 -3.481,9.676 -10.125,10.125 m 10.125,-10.125 c 0.344,6.262 -3.953,10.59 -10.125,10.125 m 0,0 c -40.848,-2.266 -77.77,-0.539 -146.078,0 m 146.078,0 c -54.676,1.363 -110.609,1.184 -146.078,0 m 0,0 c -5.738,-0.172 -10.11,-4.605 -10.125,-10.125 m 10.125,10.125 c -7.574,0.016 -11.496,-4.582 -10.125,-10.125 m 0,0 c 0.359,-7.172 -0.129,-16.059 0,-20.25 m 0,20.25 c 0.328,-4.555 0.601,-9.242 0,-20.25 m 0,0 c -0.36,-8.062 4.597,-10.379 10.125,-10.125 m -10.125,10.125 c 0.699,-6.637 1.687,-11.691 10.125,-10.125" /></g><text
         id="text172"
         style="font-variant:normal;font-weight:normal;font-size:12px;font-family:'DejaVu Sans';-inkscape-font-specification:DejaVuSans;writing-mode:lr-tb;fill:#1e1e1e;fill-opacity:1;fill-rule:nonzero;stroke:none"
         transform="translate(1037.0971,392.15479)"><tspan
           id="tspan170"
           y="0"
           x="0 4.6799998 12.312 16.992001 20.796 28.403999 35.495998 42.875999 50.484001 55.164001 62.495998 72.300003 76.103996 85.344002 92.435997 100.032 107.376 119.064 122.388 129.01199">(8) Eyebrow Dynamics</tspan></text>
<g
         id="g174"><path
           id="path176"
           style="fill:none;stroke:#1e1e1e;stroke-width:1.5;stroke-linecap:round;stroke-linejoin:miter;stroke-miterlimit:4;stroke-dasharray:none;stroke-opacity:1"
           d="m 735.414,150.711 c -28.523,25.355 -109.613,116.707 -171.121,152.144 -61.5,35.446 -164.91,50.43 -197.887,60.508 M 735.414,150.711 c -28.523,25.355 -109.613,116.707 -171.121,152.144 -61.5,35.446 -164.91,50.43 -197.887,60.508" /></g><g
         id="g178"><path
           id="path180"
           style="fill:none;stroke:#1e1e1e;stroke-width:1.5;stroke-linecap:round;stroke-linejoin:miter;stroke-miterlimit:4;stroke-dasharray:none;stroke-opacity:1"
           d="m 382.066,353.066 c -5.421,3.563 -10.843,7.133 -15.66,10.297 m 15.66,-10.297 c -3.945,2.598 -7.898,5.192 -15.66,10.297" /></g><g
         id="g182"><path
           id="path184"
           style="fill:none;stroke:#1e1e1e;stroke-width:1.5;stroke-linecap:round;stroke-linejoin:miter;stroke-miterlimit:4;stroke-dasharray:none;stroke-opacity:1"
           d="m 385.027,365.547 c -6.449,-0.758 -12.89,-1.508 -18.621,-2.184 m 18.621,2.184 c -4.703,-0.555 -9.394,-1.102 -18.621,-2.184" /></g><g
         id="g186"><path
           id="path188"
           style="fill:none;stroke:#1e1e1e;stroke-width:1.5;stroke-linecap:round;stroke-linejoin:miter;stroke-miterlimit:4;stroke-dasharray:none;stroke-opacity:1"
           d="m 735.617,151.273 c -16.336,21.579 -66.773,94.559 -98.027,129.465 -31.258,34.903 -74.594,66.645 -89.512,79.973 M 735.617,151.273 c -16.336,21.579 -66.773,94.559 -98.027,129.465 -31.258,34.903 -74.594,66.645 -89.512,79.973" /></g><g
         id="g190"><path
           id="path192"
           style="fill:none;stroke:#1e1e1e;stroke-width:1.5;stroke-linecap:round;stroke-linejoin:miter;stroke-miterlimit:4;stroke-dasharray:none;stroke-opacity:1"
           d="m 557.559,344.539 c -2.528,4.313 -5.055,8.625 -9.481,16.172 m 9.481,-16.172 c -3.563,6.074 -7.125,12.145 -9.481,16.172" /></g><g
         id="g194"><path
           id="path196"
           style="fill:none;stroke:#1e1e1e;stroke-width:1.5;stroke-linecap:round;stroke-linejoin:miter;stroke-miterlimit:4;stroke-dasharray:none;stroke-opacity:1"
           d="m 565.742,354.418 c -4.719,1.68 -9.43,3.359 -17.664,6.293 m 17.664,-6.293 c -6.637,2.363 -13.269,4.723 -17.664,6.293" /></g><g
         id="g198"><path
           id="path200"
           style="fill:none;stroke:#1e1e1e;stroke-width:1.5;stroke-linecap:round;stroke-linejoin:miter;stroke-miterlimit:4;stroke-dasharray:none;stroke-opacity:1"
           d="m 735.781,151.148 c -0.148,35.125 -0.75,175.622 -0.898,210.743 m 0.898,-210.743 c -0.148,35.125 -0.75,175.622 -0.898,210.743" /></g><g
         id="g202"><path
           id="path204"
           style="fill:none;stroke:#1e1e1e;stroke-width:1.5;stroke-linecap:round;stroke-linejoin:miter;stroke-miterlimit:4;stroke-dasharray:none;stroke-opacity:1"
           d="m 728.543,344.246 c 2.059,5.727 4.113,11.457 6.34,17.645 m -6.34,-17.645 c 1.359,3.777 2.719,7.559 6.34,17.645" /></g><g
         id="g206"><path
           id="path208"
           style="fill:none;stroke:#1e1e1e;stroke-width:1.5;stroke-linecap:round;stroke-linejoin:miter;stroke-miterlimit:4;stroke-dasharray:none;stroke-opacity:1"
           d="m 741.371,344.305 c -2.109,5.707 -4.215,11.414 -6.488,17.586 m 6.488,-17.586 c -1.391,3.765 -2.785,7.531 -6.488,17.586" /></g><g
         id="g210"><path
           id="path212"
           style="fill:none;stroke:#1e1e1e;stroke-width:1.5;stroke-linecap:round;stroke-linejoin:miter;stroke-miterlimit:4;stroke-dasharray:none;stroke-opacity:1"
           d="m 735.613,151.059 c 12.446,21.414 44.535,93.55 74.672,128.492 30.125,34.941 88.434,67.633 106.125,81.164 M 735.613,151.059 c 12.446,21.414 44.535,93.55 74.672,128.492 30.125,34.941 88.434,67.633 106.125,81.164" /></g><g
         id="g214"><path
           id="path216"
           style="fill:none;stroke:#1e1e1e;stroke-width:1.5;stroke-linecap:round;stroke-linejoin:miter;stroke-miterlimit:4;stroke-dasharray:none;stroke-opacity:1"
           d="m 898.215,356.172 c 4.828,1.207 9.66,2.414 18.195,4.543 m -18.195,-4.543 c 6.644,1.664 13.281,3.32 18.195,4.543" /></g><g
         id="g218"><path
           id="path220"
           style="fill:none;stroke:#1e1e1e;stroke-width:1.5;stroke-linecap:round;stroke-linejoin:miter;stroke-miterlimit:4;stroke-dasharray:none;stroke-opacity:1"
           d="m 905.391,345.543 c 2.925,4.027 5.851,8.055 11.019,15.172 m -11.019,-15.172 c 4.019,5.543 8.05,11.078 11.019,15.172" /></g><g
         id="g222"><path
           id="path224"
           style="fill:none;stroke:#1e1e1e;stroke-width:1.5;stroke-linecap:round;stroke-linejoin:miter;stroke-miterlimit:4;stroke-dasharray:none;stroke-opacity:1"
           d="m 735.879,150.68 c 23.543,23.453 79.973,105.593 141.262,140.73 61.297,35.145 188.757,58.434 226.507,70.125 M 735.879,150.68 c 23.543,23.453 79.973,105.593 141.262,140.73 61.297,35.145 188.757,58.434 226.507,70.125" /></g><g
         id="g226"><path
           id="path228"
           style="fill:none;stroke:#1e1e1e;stroke-width:1.5;stroke-linecap:round;stroke-linejoin:miter;stroke-miterlimit:4;stroke-dasharray:none;stroke-opacity:1"
           d="m 1084.996,363.426 c 4.934,-0.504 9.871,-0.996 18.652,-1.891 m -18.652,1.891 c 4.063,-0.41 8.129,-0.824 18.652,-1.891" /></g><g
         id="g230"><path
           id="path232"
           style="fill:none;stroke:#1e1e1e;stroke-width:1.5;stroke-linecap:round;stroke-linejoin:miter;stroke-miterlimit:4;stroke-dasharray:none;stroke-opacity:1"
           d="m 1088.137,350.992 c 4.109,2.789 8.215,5.578 15.511,10.543 m -15.511,-10.543 c 3.383,2.301 6.758,4.598 15.511,10.543" /></g><path
         id="path234"
         style="fill:#d0f4de;fill-opacity:1;fill-rule:nonzero;stroke:none"
         d="m 1092.348,130.004 c 50.324,3.359 102.39,1.242 128.859,0 3.117,0.082 6.156,1.191 5.813,5.812 0.238,1.551 0.644,7.125 0,11.625 0.718,1.657 -0.708,6.223 -5.813,5.813 -37.687,-3.789 -80.941,0 -128.859,0 -4.348,0.711 -5.887,-3.008 -5.813,-5.813 1.582,-2.453 0.61,-9.992 0,-11.625 0.969,-2.507 3.399,-7.05 5.813,-5.812" /><g
         id="g236"><path
           id="path238"
           style="fill:none;stroke:#1e1e1e;stroke-width:1.5;stroke-linecap:round;stroke-linejoin:miter;stroke-miterlimit:4;stroke-dasharray:none;stroke-opacity:1"
           d="m 1092.348,130.004 c 28.386,-0.559 58.679,-0.684 128.859,0 m -128.859,0 c 41.964,0.098 85.132,-0.977 128.859,0 m 0,0 c 4.852,-0.34 6.945,1.902 5.813,5.812 m -5.813,-5.812 c 4.941,-0.461 7.223,0.949 5.813,5.812 m 0,0 c -0.04,4.153 -0.082,7.723 0,11.625 m 0,-11.625 c 0.5,5 0.14,9.442 0,11.625 m 0,0 c -1.305,3.86 -0.571,5.129 -5.813,5.813 m 5.813,-5.813 c 1.714,3.387 -0.579,7.028 -5.813,5.813 m 0,0 c -26.305,-0.668 -55.57,1.027 -128.859,0 m 128.859,0 c -37.777,-0.375 -75.519,-1.402 -128.859,0 m 0,0 c -4.036,-0.375 -6.84,-2.801 -5.813,-5.813 m 5.813,5.813 c -3.688,0.832 -6.539,-0.453 -5.813,-5.813 m 0,0 c -0.597,-3.031 0.01,-6.789 0,-11.625 m 0,11.625 c -0.66,-2.281 0.082,-5.527 0,-11.625 m 0,0 c 1.442,-3.55 2.305,-5.89 5.813,-5.812 m -5.813,5.812 c 0.324,-2.468 0.317,-5.027 5.813,-5.812" /></g><text
         id="text242"
         style="font-variant:normal;font-weight:normal;font-size:11.64273643px;font-family:'DejaVu Sans';-inkscape-font-specification:DejaVuSans;writing-mode:lr-tb;fill:#1e1e1e;fill-opacity:1;fill-rule:nonzero;stroke:none"
         transform="translate(1110.1141,145.45771)"><tspan
           id="tspan240"
           y="0"
           x="0 7.3814945 14.262352 21.632204 28.024065 35.428844 39.969513 47.083225 54.453075 57.678116 63.778908 70.904259 75.468216 78.693253 85.806961">Synchronization</tspan></text>
<g
         id="g244"><path
           id="path246"
           style="fill:none;stroke:#1e1e1e;stroke-width:1.5;stroke-linecap:round;stroke-linejoin:miter;stroke-miterlimit:4;stroke-dasharray:none;stroke-opacity:1"
           d="m 1156.195,156.969 c -59.57,22.519 -119.277,42.867 -175.703,63.605 m 175.703,-63.605 c -60.179,20.48 -120.929,42.621 -175.703,63.605" /></g><g
         id="g248"><path
           id="path250"
           style="fill:none;stroke:#1e1e1e;stroke-width:1.5;stroke-linecap:round;stroke-linejoin:miter;stroke-miterlimit:4;stroke-dasharray:none;stroke-opacity:1"
           d="m 994.715,208.359 c -4.473,4.813 -9.445,7.461 -14.223,12.215 m 14.223,-12.215 c -4.383,3.922 -9.227,8.301 -14.223,12.215" /></g><g
         id="g252"><path
           id="path254"
           style="fill:none;stroke:#1e1e1e;stroke-width:1.5;stroke-linecap:round;stroke-linejoin:miter;stroke-miterlimit:4;stroke-dasharray:none;stroke-opacity:1"
           d="m 999.234,220.363 c -5.922,0.758 -12.425,-0.664 -18.742,0.211 m 18.742,-0.211 c -5.992,-0.277 -12.402,-0.051 -18.742,0.211" /></g><g
         id="g256"><path
           id="path258"
           style="fill:none;stroke:#1e1e1e;stroke-width:1.5;stroke-linecap:round;stroke-linejoin:miter;stroke-miterlimit:4;stroke-dasharray:none;stroke-opacity:1"
           d="m 1158.668,157.039 c 57.742,20.027 115.492,40.059 174.773,60.617 m -174.773,-60.617 c 35.453,12.293 70.906,24.594 174.773,60.617" /></g><g
         id="g260"><path
           id="path262"
           style="fill:none;stroke:#1e1e1e;stroke-width:1.5;stroke-linecap:round;stroke-linejoin:miter;stroke-miterlimit:4;stroke-dasharray:none;stroke-opacity:1"
           d="m 1314.691,217.941 c 6.196,-0.097 12.391,-0.187 18.75,-0.285 m -18.75,0.285 c 3.801,-0.062 7.606,-0.121 18.75,-0.285" /></g><g
         id="g264"><path
           id="path266"
           style="fill:none;stroke:#1e1e1e;stroke-width:1.5;stroke-linecap:round;stroke-linejoin:miter;stroke-miterlimit:4;stroke-dasharray:none;stroke-opacity:1"
           d="m 1318.891,205.82 c 4.808,3.907 9.617,7.821 14.55,11.836 m -14.55,-11.836 c 2.957,2.399 5.902,4.801 14.55,11.836" /></g><path
         id="path268"
         style="fill:#d0f4de;fill-opacity:1;fill-rule:nonzero;stroke:none"
         d="m 1256.219,224.957 c 54.531,0.527 114.254,0.648 146.078,0 4.531,1.238 10.535,3.641 10.125,10.125 -1.973,4.59 1.812,10.973 0,20.25 0.711,6.676 -4.449,11.715 -10.125,10.125 -27.25,2.246 -61.043,2.703 -146.078,0 -5.379,1.465 -11.364,-2.512 -10.125,-10.125 -1.344,-6.973 2.722,-9.387 0,-20.25 -1.164,-5.668 1.941,-12.547 10.125,-10.125" /><g
         id="g270"><path
           id="path272"
           style="fill:none;stroke:#1e1e1e;stroke-width:1.5;stroke-linecap:round;stroke-linejoin:miter;stroke-miterlimit:4;stroke-dasharray:none;stroke-opacity:1"
           d="m 1256.219,224.957 c 50.07,0.184 100.777,-0.019 146.078,0 m -146.078,0 c 40.101,0.184 79.449,0.879 146.078,0 m 0,0 c 7.344,0.023 10.551,4.613 10.125,10.125 m -10.125,-10.125 c 7.695,-0.434 11.43,5.035 10.125,10.125 m 0,0 c 0.187,7.742 -0.488,14.238 0,20.25 m 0,-20.25 c -0.481,5.672 0.113,11.695 0,20.25 m 0,0 c -0.594,6.527 -2.274,10.008 -10.125,10.125 m 10.125,-10.125 c -0.668,5.492 -3.75,11.438 -10.125,10.125 m 0,0 c -38.688,-1.184 -77.477,0.008 -146.078,0 m 146.078,0 c -51.137,1.148 -101.379,0.863 -146.078,0 m 0,0 c -6.645,-0.012 -10.852,-4.43 -10.125,-10.125 m 10.125,10.125 c -5.047,0.625 -11.739,-2.211 -10.125,-10.125 m 0,0 c 0.39,-6.387 -0.01,-13.227 0,-20.25 m 0,20.25 c 0.906,-7.992 -0.293,-15.637 0,-20.25 m 0,0 c 1.027,-6.484 3.234,-10.543 10.125,-10.125 m -10.125,10.125 c 0.051,-6.523 2.894,-11.062 10.125,-10.125" /></g><text
         id="text276"
         style="font-variant:normal;font-weight:normal;font-size:12px;font-family:'DejaVu Sans';-inkscape-font-specification:DejaVuSans;writing-mode:lr-tb;fill:#1e1e1e;fill-opacity:1;fill-rule:nonzero;stroke:none"
         transform="translate(1289.5662,249.15668)"><tspan
           id="tspan274"
           y="0"
           x="0 4.6799998 12.312 19.944 24.624001 28.427999 35.112 38.436001 46.043999 50.363998 57.972 65.064003 72.695999">(10) Lip-Sync</tspan></text>
<path
         id="path278"
         style="fill:#d0f4de;fill-opacity:1;fill-rule:nonzero;stroke:none"
         d="m 897.359,227.516 c 44.864,0.531 94.59,-0.442 146.075,0 6.285,-2.512 12.339,1.738 10.125,10.125 1.007,5.152 -0.778,12.039 0,20.25 -2.653,6.254 -1.598,12.336 -10.125,10.125 -45.246,2.406 -94.469,1.808 -146.075,0 -6.968,-2.594 -11.589,-5.071 -10.125,-10.125 -1.48,-4.2 -1.75,-12.981 0,-20.25 0.485,-8.34 4.567,-8.618 10.125,-10.125" /><g
         id="g280"><path
           id="path282"
           style="fill:none;stroke:#1e1e1e;stroke-width:1.5;stroke-linecap:round;stroke-linejoin:miter;stroke-miterlimit:4;stroke-dasharray:none;stroke-opacity:1"
           d="m 897.359,227.516 c 54.457,0.324 108.84,-0.637 146.075,0 m -146.075,0 c 31.371,-0.075 62.375,0.531 146.075,0 m 0,0 c 7.57,-0.375 11.265,4.816 10.125,10.125 m -10.125,-10.125 c 7,1.648 8.632,3.367 10.125,10.125 m 0,0 c -0.516,9.105 0.968,14.566 0,20.25 m 0,-20.25 c -0.305,6.406 0.543,12.968 0,20.25 m 0,0 c -0.582,5.656 -3.696,11.265 -10.125,10.125 m 10.125,-10.125 c -0.653,5.699 -3.555,9.691 -10.125,10.125 m 0,0 c -33.067,-0.473 -66.293,-0.328 -146.075,0 m 146.075,0 c -41.496,-0.782 -83.465,-1.305 -146.075,0 m 0,0 c -5.265,0.539 -11.531,-2.364 -10.125,-10.125 m 10.125,10.125 c -6.175,-0.555 -8.468,-3 -10.125,-10.125 m 0,0 c 1.235,-7.981 0.696,-11.707 0,-20.25 m 0,20.25 c 0.645,-5.235 0.059,-10.95 0,-20.25 m 0,0 c 0.043,-6.555 2.961,-10.942 10.125,-10.125 m -10.125,10.125 c 1.461,-7.559 3.426,-11.2 10.125,-10.125" /></g><text
         id="text286"
         style="font-variant:normal;font-weight:normal;font-size:12px;font-family:'DejaVu Sans';-inkscape-font-specification:DejaVuSans;writing-mode:lr-tb;fill:#1e1e1e;fill-opacity:1;fill-rule:nonzero;stroke:none"
         transform="translate(905.80255,251.71371)"><tspan
           id="tspan284"
           y="0"
           x="0 4.6799998 12.312 16.992001 20.796 28.403999 31.728001 35.051998 42.431999 50.028 54.731998 58.571999 65.255997 68.580002 76.188004 79.991997 87.599998 92.304001 99.648003 107.256 110.58 113.904 117.228 121.932">(9) Silent Lip Stability</tspan></text>
<g
         id="g288"><path
           id="path290"
           style="fill:none;stroke:#1e1e1e;stroke-width:1.5;stroke-linecap:round;stroke-linejoin:miter;stroke-miterlimit:4;stroke-dasharray:none;stroke-opacity:1"
           d="m 735.648,54.711 c 0.164,17.285 0.325,34.574 0.594,63.195 m -0.594,-63.195 c 0.188,20.129 0.383,40.25 0.594,63.195" /></g><g
         id="g292"><path
           id="path294"
           style="fill:none;stroke:#1e1e1e;stroke-width:1.5;stroke-linecap:round;stroke-linejoin:miter;stroke-miterlimit:4;stroke-dasharray:none;stroke-opacity:1"
           d="m 729.664,100.34 c 1.801,4.808 3.598,9.609 6.578,17.566 m -6.578,-17.566 c 2.098,5.594 4.191,11.191 6.578,17.566" /></g><g
         id="g296"><path
           id="path298"
           style="fill:none;stroke:#1e1e1e;stroke-width:1.5;stroke-linecap:round;stroke-linejoin:miter;stroke-miterlimit:4;stroke-dasharray:none;stroke-opacity:1"
           d="m 742.488,100.219 c -1.711,4.84 -3.414,9.676 -6.246,17.687 m 6.246,-17.687 c -1.988,5.633 -3.976,11.265 -6.246,17.687" /></g><path
         id="path300"
         style="fill:#a9def9;fill-opacity:1;fill-rule:nonzero;stroke:none"
         d="m 671.727,125.039 c 37.996,-0.988 73.972,-2.398 128.855,0 2.59,-2.281 4.672,0.399 5.813,5.813 -1.723,2.543 -1.981,9.953 0,11.625 -1.243,6.496 -3.278,8.468 -5.813,5.812 -40.312,-2.707 -79.25,-0.668 -128.855,0 -3.114,0.301 -4.188,-3.848 -5.813,-5.812 0.891,-3.317 -1.051,-5.758 0,-11.625 -1.867,-6.157 3.051,-5.317 5.813,-5.813" /><g
         id="g302"><path
           id="path304"
           style="fill:none;stroke:#1e1e1e;stroke-width:1.5;stroke-linecap:round;stroke-linejoin:miter;stroke-miterlimit:4;stroke-dasharray:none;stroke-opacity:1"
           d="m 671.727,125.039 c 44.894,-1.223 88.363,-2.004 128.855,0 m -128.855,0 c 39.687,-0.719 80.699,-0.328 128.855,0 m 0,0 c 4.336,0.602 6.145,2.219 5.813,5.813 m -5.813,-5.813 c 2.152,1.207 6.984,2.984 5.813,5.813 m 0,0 c -0.383,5.086 0.863,8.117 0,11.625 m 0,-11.625 c -0.106,3.195 0.355,6.898 0,11.625 m 0,0 c -1.215,3.414 -1.274,7.261 -5.813,5.812 m 5.813,-5.812 c 1.449,5.386 -2.684,6.871 -5.813,5.812 m 0,0 c -41.773,1.559 -81.02,0.262 -128.855,0 m 128.855,0 c -27.098,-0.742 -53.742,-1.004 -128.855,0 m 0,0 c -4.036,0.555 -4.653,-3.277 -5.813,-5.812 m 5.813,5.812 c -5.512,-0.601 -5.61,-2.57 -5.813,-5.812 m 0,0 c 0.961,-5.665 0.027,-8.872 0,-11.625 m 0,11.625 c 0.563,-3.082 0.027,-6.082 0,-11.625 m 0,0 c -1.289,-2.731 1.965,-6.891 5.813,-5.813 m -5.813,5.813 c 0.328,-5.024 2.504,-4.184 5.813,-5.813" /></g><text
         id="text308"
         style="font-variant:normal;font-weight:normal;font-size:11.64273643px;font-family:'DejaVu Sans';-inkscape-font-specification:DejaVuSans;writing-mode:lr-tb;fill:#1e1e1e;fill-opacity:1;fill-rule:nonzero;stroke:none"
         transform="translate(701.31604,140.49491)"><tspan
           id="tspan306"
           y="0"
           x="0 8.7087669 15.834121 20.398073 27.767925 32.588017 39.713371 42.938412 50.308262 57.468544 63.522766">Naturalness</tspan></text>
</g></g></svg>